HIERARCHY
ROOT Hips
{
   OFFSET 0.00000 0.00000 0.00000
   CHANNELS 6 Xposition Yposition Zposition Zrotation Xrotation Yrotation
   JOINT RightUpLeg
   {
      OFFSET -7.156640 -6.933656 0.081322
      CHANNELS 3 Zrotation Xrotation Yrotation
      JOINT RightLeg
      {
         OFFSET 0.000000 -35.538158 1.098160
         CHANNELS 3 Zrotation Xrotation Yrotation
         JOINT RightFoot
         {
            OFFSET 0.202839 -33.673920 -1.168472
            CHANNELS 3 Zrotation Xrotation Yrotation
            JOINT RightToes
            {
               OFFSET 0.032000 -3.532072 6.799280
               CHANNELS 3 Zrotation Xrotation Yrotation
               End Site
               {
                  OFFSET -0.064000 -0.109958 7.823832
               }
            }
         }
      }
   }
   JOINT Spine
   {
      OFFSET 0.000000 9.512400 0.000000
      CHANNELS 3 Zrotation Xrotation Yrotation
      JOINT Spine1
      {
         OFFSET 0.000000 20.525920 0.102130
         CHANNELS 3 Zrotation Xrotation Yrotation
         JOINT HEad
         {
            OFFSET 0.000000 6.987328 0.009073
            CHANNELS 3 Zrotation Xrotation Yrotation
            End Site
            {
               OFFSET -0.232000 10.219360 2.011160
            }
         }
         JOINT LeftShoulder1
         {
            OFFSET 7.192000 -0.289802 -0.176000
            CHANNELS 3 Zrotation Xrotation Yrotation
            JOINT LeftArm
            {
               OFFSET 8.226160 -0.002704 0.257698
               CHANNELS 3 Zrotation Xrotation Yrotation
               JOINT LeftForeArm
               {
                  OFFSET 26.213519 0.079315 -1.139472
                  CHANNELS 3 Zrotation Xrotation Yrotation
                  JOINT LeftHand
                  {
                     OFFSET 22.051441 0.068290 0.817728
                     CHANNELS 3 Zrotation Xrotation Yrotation
                     End Site
                     {
                        OFFSET 13.395442 -0.480000 1.202328
                     }
                  }
               }
            }
         }
         JOINT RightShoulder
         {
            OFFSET -7.192000 -0.289802 -0.176000
            CHANNELS 3 Zrotation Xrotation Yrotation
            JOINT RightArm
            {
               OFFSET -8.226160 -0.002704 0.257698
               CHANNELS 3 Zrotation Xrotation Yrotation
               JOINT RightForeArm
               {
                  OFFSET -26.317679 0.079315 -1.139472
                  CHANNELS 3 Zrotation Xrotation Yrotation
                  JOINT RightHand
                  {
                     OFFSET -21.993682 0.068290 0.817728
                     CHANNELS 3 Zrotation Xrotation Yrotation
                     End Site
                     {
                        OFFSET -13.304962 -0.480000 1.202328
                     }
                  }
               }
            }
         }
      }
   }
   JOINT LeftUpLeg
   {
      OFFSET 7.156640 -6.933656 0.081322
      CHANNELS 3 Zrotation Xrotation Yrotation
      JOINT LeftLeg
      {
         OFFSET 0.000000 -35.538158 1.098160
         CHANNELS 3 Zrotation Xrotation Yrotation
         JOINT LeftFoot
         {
            OFFSET -0.202839 -33.673920 -1.168472
            CHANNELS 3 Zrotation Xrotation Yrotation
            JOINT LeftToes
            {
               OFFSET -0.032000 -3.532072 6.799280
               CHANNELS 3 Zrotation Xrotation Yrotation
               End Site
               {
                  OFFSET 0.064000 -0.037958 7.823832
               }
            }
         }
      }
   }
}
MOTION
Frames: 7
Frame Time: 0.016667
-940.896974 92.629813 380.858950 -6.677095 4.552783 27.024306 -14.098196 -7.046939 6.320605 12.561561 9.986297 1.617934 -50.922120 15.731177 49.890174 47.403278 10.831845 -37.121142 -0.883365 -11.289128 -16.886996 -1.401737 8.337371 20.818118 16.709619 -23.826302 5.338112 -16.617140 -43.948538 -16.506943 -305.736042 -82.489595 -285.888359 -107.402915 98.294495 -15.294166 24.896553 -0.152750 19.652952 -8.649071 -89.493933 -12.191426 20.398930 -48.428292 -60.050169 37.440163 92.151287 77.756082 1.659024 8.883625 5.965184 27.256129 -22.837600 -102.498094 -11.444568 -17.684285 159.611945 -56.198397 20.052034 51.172932 -42.000435 -1.196017 7.557841
-941.340242 92.401341 380.433992 -6.956623 4.085861 27.046668 -15.073760 -6.415160 7.497872 14.616106 8.356282 -1.177394 -51.562563 15.374874 50.088653 47.137519 10.437618 -37.095738 -1.105975 -8.526393 -18.379940 -0.633483 7.734692 20.600769 21.529706 -26.077351 1.477118 -15.852060 -43.167052 -16.887159 -304.437350 -82.769872 -287.404470 -106.794577 99.382435 -15.243976 25.374882 -0.731793 18.945253 -7.628177 -92.302248 -11.673539 22.421015 -47.691847 -60.186220 35.888846 89.893643 78.965060 1.626790 9.307804 6.575286 28.467484 -23.718839 -106.456503 -11.239995 -19.853900 168.213667 -54.632525 22.545447 51.070154 -42.384718 0.326833 8.297023
-941.666093 92.043732 379.908899 -6.423081 3.299207 28.076760 -15.737533 -6.048845 8.079694 15.517365 8.350118 -4.160335 -51.776338 15.311559 50.121332 46.712719 9.820816 -37.313477 -1.004985 -7.220366 -19.188049 -2.668506 8.240175 20.827549 25.298314 -26.066483 -1.844434 -17.026999 -43.472453 -17.025423 -302.747944 -83.975967 -288.301520 -106.543062 100.441470 -16.033572 24.486971 -0.086903 16.874884 -7.016642 -94.483933 -11.086298 24.649195 -46.589902 -60.239612 35.150380 88.650077 80.106378 1.050078 9.698446 7.437365 29.198181 -24.048072 -110.074926 -9.974968 -22.128787 174.718083 -52.935325 22.909455 49.869916 -42.416486 0.505500 8.097378
-941.844697 91.546324 379.386515 -5.861971 2.809328 28.589177 -16.218747 -5.896025 7.922895 15.765649 8.877554 -6.382923 -51.528498 15.221992 50.243302 46.136289 8.986727 -37.542551 -0.641613 -6.122686 -20.242292 -4.266514 8.639372 20.662236 28.143678 -26.220960 -4.816612 -19.164235 -43.445720 -17.361043 -301.800870 -85.817236 -287.817833 -105.094782 101.199081 -16.306283 24.466013 -0.765619 15.309929 -6.451006 -95.376659 -10.479733 26.863491 -45.952113 -59.892850 34.465384 87.501335 80.665975 0.888473 10.121097 8.131525 29.599612 -24.212893 -113.528522 -8.491919 -23.911469 179.623853 -50.680325 20.747456 48.056081 -42.061633 -0.817409 7.105526
-941.906114 90.952185 378.939432 -5.307819 2.161476 28.692744 -16.554809 -5.718925 6.979028 15.977346 9.942465 -7.895980 -50.961578 15.108778 50.441982 45.440132 8.003751 -37.672810 0.445738 -5.369949 -20.759540 -5.008778 9.100148 20.893429 29.760213 -26.281099 -7.480569 -20.527724 -42.917695 -17.306116 -300.258476 -88.074067 -287.069764 -102.879765 102.179971 -16.570529 23.668620 -0.731605 13.243609 -6.373060 -95.994579 -9.723569 29.241706 -45.592008 -58.775615 33.931304 86.119581 80.877151 1.030421 10.547694 8.711239 29.840031 -24.428373 -117.241099 -7.163033 -25.306788 180.919007 -49.125289 19.582777 46.319785 -41.786086 -1.841505 6.464528
-941.823564 90.263899 378.591646 -4.980039 1.092340 28.253540 -16.904938 -5.314977 5.432714 16.360537 11.398258 -8.653874 -49.837192 14.929199 50.988236 44.700859 6.957233 -37.585284 1.472497 -4.813966 -20.851717 -5.554773 9.831694 21.398778 29.984213 -26.029979 -9.841467 -21.597253 -42.520270 -16.961947 -298.361979 -90.447216 -285.496662 -99.810531 103.257010 -17.079549 23.494881 -1.479557 10.631124 -6.614723 -96.017549 -8.940002 31.572286 -45.365550 -57.040873 33.522620 84.833572 80.846579 1.590520 10.949873 9.330907 29.809941 -24.424024 -121.069502 -6.913528 -25.021963 179.988011 -47.606767 18.776637 45.448116 -41.603946 -2.522032 6.555853
-941.659990 89.529389 378.313555 -4.884740 -0.008615 28.433709 -16.936654 -4.984571 3.001454 16.688177 13.210483 -9.078169 -48.735377 14.903471 51.420249 43.871019 5.825354 -37.512488 2.075811 -4.270640 -20.946124 -5.854728 10.501112 21.722090 28.812986 -25.295686 -11.906019 -22.378428 -42.725214 -16.957401 -296.015508 -92.848267 -282.868241 -95.385026 104.356186 -17.474482 22.967845 -1.831485 7.023843 -6.724084 -95.659272 -8.204339 34.204119 -45.219448 -54.986687 33.062156 83.565992 80.519570 2.566483 11.342000 9.913098 29.558395 -24.173950 -124.160955 -6.062658 -24.782937 178.946844 -46.180070 17.790087 44.673040 -41.337749 -3.544837 6.715659
